<?xml
version="1.0" encoding="UTF-8"?>
<svg width="119px" height="34px" viewBox="0 0 119 34" version="1.1" xmlns="http://www.w3.org/2000/svg" xmlns:xlink="http://www.w3.org/1999/xlink">
    <!-- Generator: sketchtool 40.2 (33826) - http://www.bohemiancoding.com/sketch -->
    <title>1A3D1590-C609-4E94-88C8-B4B0F5018C54</title>
    <desc>Created with sketchtool.</desc>
    <defs></defs>
    <g id="Symbols" stroke="none" stroke-width="1" fill="none" fill-rule="evenodd">
        <g id="nav-/-menu-open-/-mobile-" transform="translate(-16.000000, -14.000000)" fill="#FFFFFF">
            <g id="MP-logo-Copy-15" transform="translate(16.000000, 14.000000)">
                <path d="M21.1500825,22.454585 L21.1500825,22.3652982 L21.1500825,22.454585 L21.1500825,22.454585 Z M8.37809589,22.5327177 L8.62957295,12.6034565 L5.80882198,22.5323832 L0.66994285,22.5323832 L5.22204217,6.50945549 L13.586885,6.50945549 L12.8404056,15.4694902 L17.3966465,6.50945549 L25.7639743,6.50945549 L21.229601,22.4720051 L21.2125376,22.5323832 L16.0136883,22.5323832 L18.8531593,12.636907 L13.5156497,22.5327177 L8.37809589,22.5327177 L8.37809589,22.5327177 Z" id="Fill-1"></path>
                <path d="M49.487141,6.59107457 L46.3678645,15.9603754 L48.5319257,22.4380529 L50.660038,22.4510986 L52.0801048,17.6275453 L56.7054273,17.6282143 L60.3412423,15.5129757 L62.3351671,8.76150632 L59.9424904,6.59107457 L49.487141,6.59107457 Z M53.2470379,13.6666787 L54.1638192,10.5536136 L55.6057536,10.5536136 L54.6861559,13.6666787 L53.2470379,13.6666787 Z" id="Combined-Shape"></path>
                <path d="M74.4544399,6.59241258 L63.6743902,6.59241258 L59.0038415,22.4495933 L65.141671,22.4495933 L66.9856705,16.2895277 L68.5127559,16.2895277 L66.7136512,22.4495933 L72.8216613,22.4495933 L74.7759926,15.8720662 L73.1384098,14.4040937 L75.6719004,12.8578471 L76.8757764,8.80499189 L74.4544399,6.59241258 Z M70.2724327,10.3619426 L69.6511949,12.4556056 L68.0734165,12.4556056 L68.7007839,10.3619426 L70.2724327,10.3619426 Z" id="Combined-Shape"></path>
                <polygon id="Fill-9" points="78.2154964 6.59241258 73.5447821 22.4495933 85.538979 22.4495933 86.8218765 18.0635717 80.9810815 18.0635717 81.4633277 16.5009345 86.2788318 16.5016035 87.4976176 12.2639346 82.6844327 12.2639346 83.1057148 10.8299142 89.0127752 10.8299142 90.2678412 6.59241258"></polygon>
                <path d="M101.71187,6.59241258 L90.9611426,6.59241258 L86.2910909,22.4500951 L92.4299144,22.4500951 L93.8498156,17.6275453 L98.4736471,17.6278798 L102.109628,15.5129757 L104.10289,8.76150632 L101.71187,6.59241258 Z M95.0172456,13.6658425 L95.933033,10.5532791 L97.374636,10.5532791 L96.4553697,13.6658425 L95.0172456,13.6658425 Z" id="Combined-Shape"></path>
                <polygon id="Fill-14" points="117.744941 11.6374078 118.616165 8.71651548 116.221997 6.59241258 108.31422 6.59241258 104.824023 8.73240444 103.138729 14.4459067 110.145463 16.4288488 109.544602 18.5313761 108.096372 18.5313761 108.604628 16.7028079 102.473259 16.7028079 101.449128 20.1721202 103.895314 22.4495933 111.630636 22.4495933 115.150652 20.3321805 117.04054 14.0386476 110.022209 12.0353008 110.519697 10.4261674 111.943242 10.4261674 111.611253 11.6374078"></polygon>
                <path d="M29.5521996,16.1548897 L31.7937913,16.1548897 L32.4213243,10.8392804 L31.9208551,10.8392804 L29.5521996,16.1548897 L29.5521996,16.1548897 Z M31.8673458,16.2439979 L31.8673458,16.1548897 L31.8673458,16.2439979 L31.8673458,16.2439979 Z M37.7997527,16.0789572 L37.8080359,16.1048813 L35.7276347,22.5320487 L30.5357433,22.5320487 L30.8889377,19.9346221 L28.2714557,19.9346221 L27.1532277,22.5327177 L21.0170548,22.5327177 L29.1380411,6.50945549 L34.7525399,6.50945549 L37.7997527,16.0789572 L37.7997527,16.0789572 Z" id="Fill-17"></path>
                <path d="M45.9320041,16.1443528 L51.1437751,0.030607152 L44.6088504,0.030607152 L43.0565842,5.33216728 C43.0835873,5.34036264 43.1115845,5.34688547 43.1384219,5.35558259 L43.2147928,5.38083767 L43.2118108,5.39137456 C44.4600847,5.84663504 45.3520165,7.05151986 45.3523478,8.46496818 L45.2698474,8.46530268 L45.3523478,8.46530268 C45.3520165,10.2716264 43.9022959,11.7372574 42.1111431,11.7375919 C41.4433539,11.7375919 40.8222817,11.5322062 40.3060745,11.1813111 C40.1377605,11.0654053 39.9807116,10.9342796 39.8369157,10.7886029 C39.2496389,10.1950249 38.8855107,9.37482013 38.8855107,8.46998574 C38.8855107,7.56615487 39.2496389,6.74712087 39.8369157,6.15387732 C40.2053512,5.78107218 40.6624165,5.49808146 41.1726599,5.33869012 L39.6159207,0.0160562109 L33.08199,0.0160562109 L38.2935954,16.1313071 L32.5265206,33.6036423 L39.1961296,33.6036423 L42.1111431,24.4430723 L45.0289728,33.6176915 L51.6984162,33.6176915 L45.9320041,16.1443528" id="Fill-20"></path>
                <path d="M45.0814881,8.49340105 C45.0814881,10.1458528 43.7546898,11.4855428 42.1179353,11.4855428 C40.4810151,11.4855428 39.1542168,10.1458528 39.1542168,8.49340105 C39.1542168,6.84094935 40.4810151,5.50125925 42.1179353,5.50125925 C43.7546898,5.50125925 45.0814881,6.84094935 45.0814881,8.49340105" id="Fill-21"></path>
            </g>
        </g>
    </g>
</svg>
